<svg width="668" height="222" viewBox="0 0 668 222" fill="none" xmlns="http://www.w3.org/2000/svg">
<g clip-path="url(#clip0_1471_58)">
<path d="M-42 -55H693.896H700.391H726V-30.8692V-24.8262V222H-42V197.04V193.758V166.573V-0.147311V-55Z" fill="#EC2024"/>
<path d="M-42 -55H693.896H700.391H726V-30.8692V-24.8262V222H-42V197.04V193.758V166.573C-37.2379 166.956 -25.0096 166.577 -19.552 166.576L28.7141 166.573L180.09 166.623L668.498 166.649L668.535 -0.192365C654.986 -0.442616 640.688 -0.220523 627.098 -0.215948L548.955 -0.205738L310.692 -0.203628L77.8009 -0.20996L2.81475 -0.234246C-11.9726 -0.245157 -27.2406 -0.433814 -42 -0.147311V-55Z" fill="#FFFEFE"/>
<path d="M17.1066 193.747L22.9869 193.841C50.5381 193.273 78.5156 194.42 106.112 194.037C110.866 193.972 115.898 193.99 120.65 194.145C118.224 196.105 95.3661 195.755 90.5374 196.642C67.4545 196.964 41.5326 197.412 18.5272 196.944L15.5391 197.004L15.7201 196.394C15.9504 195.592 16.6856 194.864 17.1066 193.747Z" fill="#FF9C53"/>
<path d="M17.1066 193.75L22.9869 193.844C22.0196 195.52 21.5433 194.397 20.7387 195.877C21.8759 196.29 22.1266 196.311 23.3394 196.408C22.05 196.51 19.6607 196.576 18.5272 196.948L15.5391 197.007L15.7201 196.397C15.9504 195.596 16.6856 194.868 17.1066 193.75Z" fill="#FE6C31"/>
<path d="M120.644 194.148C124.509 193.698 143.201 194.745 147.25 195.452C146.308 196.274 96.0106 197.04 91.0952 196.693C90.9072 196.679 90.7189 196.663 90.5312 196.645C95.36 195.758 118.218 196.108 120.644 194.148Z" fill="#FAD2A3"/>
<path d="M5 193.759C9.03468 193.735 13.0695 193.732 17.1042 193.749C16.6832 194.867 15.9479 195.595 15.7176 196.396L15.5366 197.006L5 197.041V193.759Z" fill="#EC2024"/>
<path d="M265.285 199.396C259.651 190.471 247.786 186.694 264.587 175.734C266.147 174.716 268.039 173.69 269.953 174.014C271.095 174.932 270.825 174.486 271.233 175.783C270.843 178.379 265.981 181.91 263.744 182.426L263.447 181.958L262.192 181.046C257.159 187.189 265.588 191.269 268.634 196.619L268.745 201.089C271.888 198.672 277.993 191.734 280.379 191.146C281.558 192.146 280.073 192.399 281.525 192.815C288.825 189.558 285.93 198.656 284.774 201.989C286.327 200.494 287.516 199.328 288.918 197.699C289.785 192.783 293.449 174.654 299.144 174.499C303.734 176.641 298.007 186.452 296.898 189.454C295.57 193.047 288.643 198.995 294.442 201.988C298.892 204.285 303.815 192.216 307.649 191.54C308.637 193.54 306.92 196.589 306.652 198.874C306.456 200.545 306.417 201.783 306.449 203.462C307.418 202.817 308.015 202.291 308.89 201.568C310.715 200.06 312.485 195.411 314.814 195.382C316.441 196.275 316.368 200.802 318.224 199.921C321.107 198.552 325.542 190.767 327.09 188.151C325.153 188.427 322.471 189.119 320.87 188.108C320.001 186.771 320.259 186.439 320.446 184.649C323.062 184.694 325.832 184.788 328.435 184.715C329.124 183.219 329.717 181.636 330.869 180.481L331.559 180.364C332.342 181.206 332.117 180.878 332.349 182.078C332.034 182.84 331.71 183.599 331.377 184.353C331.978 185.565 333.004 187.203 332.113 188.517L330.652 188.765C328.975 191.367 327.281 200.355 327.05 203.545C330.742 200.936 334.461 195.649 337.276 195.008C340.523 195.993 337.747 200.128 341.032 202.181C344.774 201.962 352.042 190.283 355.147 191.379L355.065 192.731C356.793 193.094 358.047 190.366 359.956 193.226C361.554 195.627 359.941 199.329 359.128 201.703C362.695 198.815 367.87 191.348 371.253 191.19C373.502 192.785 369.693 200.327 368.693 202.489C369.7 201.501 370.897 200.366 371.83 199.34C377.178 193.447 378.931 194.428 381.459 201.336C384.606 198.656 391.358 191.225 394.034 190.473C397.115 191.192 394.921 197.282 394.316 199.355C393.893 200.806 393.464 202.254 393.024 203.699C393.904 202.986 396.548 200.801 397.706 200.903L398.076 201.366C396.02 204.272 392.383 206.485 389.429 208.553C388.676 206.816 387.595 204.586 387.968 202.695C389.081 201.303 389.338 201.914 390.683 201.381C391.38 201.105 391.591 195.743 391.651 194.92C389.176 196.742 387.049 198.52 384.972 200.806C381.79 204.31 379.794 205.606 376.85 201.244C376.393 200.579 375.96 199.897 375.555 199.201C373.179 200.969 367.257 207.414 365.761 207.401C364.56 205.29 366.743 199.136 367.261 196.375C365.469 198.238 360.301 204.296 358.259 204.476L356.991 203.852C350.827 207.277 346.262 208.606 348.058 199.381C346.975 200.386 345.822 201.449 344.735 202.428C339.033 207.57 337.42 205.481 334.791 199.785C332.517 201.74 327.257 207.051 325.026 207.422C322.233 206.306 324.657 198.125 325.268 195.659C323.315 197.828 316.811 206.444 313.785 202.498C313 201.474 313.185 201.172 311.965 200.879C309.715 202.684 307.869 206.214 305.351 206.653C302.778 205.655 303.05 201.671 302.788 199.269C300.703 201.642 298.903 203.895 296.175 205.563C291.142 205.503 290.463 205.338 289.476 200.174C287.584 202.056 285.576 204.907 282.744 203.982C276.778 206.865 271.774 208.852 274.023 199.39C271.441 201.656 270.17 201.97 267.207 203.368C264.054 204.855 260.853 207.808 257.372 208.48C256.811 208.588 254.824 207.504 255.077 206.075C256.933 203.822 260.975 202.45 263.654 200.806C262.588 202.366 261.081 204.444 260.217 206.058C263.321 203.49 263.591 203.037 265.285 199.396Z" fill="black"/>
<path d="M262.188 181.044C263.873 179.446 264.851 178.666 266.986 177.625C266.246 178.493 263.903 181.141 263.443 181.956L262.188 181.044Z" fill="#EAEAEB"/>
<path d="M281.251 195.844C282.069 195.833 282.423 196.194 283.106 196.673C284.36 199.544 280.817 202.477 278.715 204.061C273.652 202.003 279.067 197.753 281.251 195.844Z" fill="#FFFEFE"/>
<path d="M355.886 195.43C360.515 197.634 355.305 202.351 353.043 204.001L351.756 203.504C349.516 200.516 353.8 197.265 355.886 195.43Z" fill="#FFFEFE"/>
<path d="M297.463 181.418C298.288 184.451 294.435 191.008 292.591 193.364C291.733 190.476 295.623 183.719 297.463 181.418Z" fill="#FFFEFE"/>
<path d="M163.859 174.973C173.033 175.116 187.642 181.356 183.253 192.952C181.656 197.169 179.023 200.049 176.047 203.295C180.989 201.941 183.054 201.937 186.225 197.886C186.572 194.349 189.129 186.982 193.757 188.752C196.903 192.25 191.282 197.434 188.884 199.769L192.223 202.003C195.898 200.177 205.78 190.398 208.752 191.786C208.874 192.313 209.248 193.742 208.863 194.095C206.251 196.514 201.923 197.92 200.322 201.254C199.523 202.917 201.012 204.245 202.511 204.67C209.562 204.23 216.521 191.141 220.835 191.347L221.01 192.692C222.831 193.017 222.716 191.753 224.76 192.205C228.177 194.794 226.197 198.394 224.894 201.722C228.257 199.306 229.996 196.736 232.149 193.255C232.825 192.162 234.703 190.881 236.045 191.542C241.476 194.216 238.95 199.474 237.532 203.729C238.766 202.804 241.331 200.576 242.949 201.087C242.616 202.473 241.223 203.467 240.149 204.39C238.707 205.324 235.833 207.707 234.367 206.274C233.941 203.016 237.648 198.909 234.962 195.811C232.965 195.628 228.299 201.925 226.088 203.622C223.944 206.029 223.493 203.262 222.488 203.818C218.436 206.058 216.876 208.919 213.093 204.134C213.276 202.811 213.825 200.641 214.13 199.281C211.021 202.007 207.241 205.715 203.326 207.08C201.854 207.594 199.993 207.661 198.599 206.896C195.906 205.416 197.013 204.812 196.34 202.576C190.98 205.882 189.805 206.922 186.318 201.692C183.219 202.899 179.955 204.025 176.82 205.157C173.993 206.177 168.511 209.978 165.747 208.496C165.878 205.483 170.74 204.717 172.761 203.132C176.648 200.083 181.786 194.516 180.274 189.1C179.112 184.942 174.951 182.676 171.421 180.743C170.141 185.444 169.169 190.284 168.382 195.09C167.558 200.116 167.261 202.605 164.217 206.726C164.418 203.014 164.712 199.307 165.098 195.61C165.456 192.139 165.989 186.361 166.677 182.786C166.742 182.448 168.778 180.791 169.245 180.411C168.97 179.704 163.857 178.976 164.083 176.641C164.097 176.494 163.894 175.23 163.859 174.973Z" fill="black"/>
<path d="M221.237 195.806C222.779 195.772 223.53 196.54 223.729 197.949C222.965 200.464 221.529 201.724 219.702 203.519C218.679 203.852 218.504 203.786 217.456 203.533C215.701 201.118 219.548 197.391 221.237 195.806Z" fill="#FFFEFE"/>
<path d="M468.505 187.688C469.206 187.731 470.167 188.192 470.572 188.732C473.142 192.154 467.326 197.66 465.273 199.539C466.104 200.349 467.407 201.25 468.364 201.957C474.247 199.739 475.845 192.656 478.535 192.275C478.887 192.854 479.239 202.774 479.429 204.671C480.732 203.026 481.137 202.371 482.14 200.688C483.302 198.74 485.745 191.525 487.308 190.739C487.717 193.651 482.066 209.874 477.13 206.76C475.486 204.186 475.926 201.564 475.958 198.456C472.536 203.101 465.942 209.501 462.351 201.119C460.447 202.767 455.166 207.878 452.709 206.275C452.424 204.905 452.751 204.61 453.187 203.179C453.712 201.307 455.419 196.918 453.008 196.077C449.913 196.888 446.534 202.334 443.717 204.079C442.084 205.091 442.119 203.437 440.961 203.916C438.683 204.857 434.219 209.032 432.332 205.32C431.11 203.286 432.645 200.844 432.047 199.979C431.103 200.581 430.188 201.257 429.1 201.497L428.695 201.093C428.713 199.503 437.169 191.334 439.197 191.222C439.225 192.098 439.077 192.103 439.56 192.683C441.855 192.325 443.369 192.118 444.89 193.993C445.467 196.335 444.207 199.124 443.408 201.463C444.661 200.609 445.995 199.501 447.03 198.4C451.322 193.841 450.857 187.347 457.363 194.233C457.813 198.338 457.113 199.553 455.888 203.424C458.76 201.863 459.964 200.689 462.182 198.309C463.14 193.061 464.295 190.976 468.505 187.688Z" fill="black"/>
<path d="M440.242 195.461C440.967 195.879 441.21 196.264 441.717 196.902C442.625 200.299 439.591 202.632 437.031 204.211C436.211 203.715 436.109 203.629 435.482 202.9C435.07 201.735 435.729 200.314 436.126 199.083C437.295 198.209 439.101 196.489 440.242 195.461Z" fill="#FFFEFE"/>
<path d="M467.469 192.305C467.998 192.806 467.832 192.63 467.998 193.479C467.607 194.739 466.621 195.485 465.656 196.387C465.435 196.167 465.385 195.925 465.266 195.616C465.614 194.353 466.621 193.329 467.469 192.305Z" fill="#FFFEFE"/>
<path d="M648.764 193.904C652.169 193.818 669.849 193.168 671.782 194.11C671.979 195.122 671.933 195.396 671.855 196.408C670.616 197.54 655.791 197.133 653.324 196.948C645.652 197.26 635.922 196.987 628.12 196.981C609.317 196.981 590.511 196.845 571.708 196.574C570.669 196.704 563.17 196.643 561.762 196.585C551.841 196.173 540.548 196.279 530.75 195.627L530.785 195.438C534.623 194.869 539.829 194.671 543.776 194.458C558.129 193.684 572.764 193.911 587.17 193.86L615.225 193.767C620.519 193.751 626.811 193.571 632.01 193.881C637.098 193.88 643.797 193.702 648.764 193.904Z" fill="#FFAF6A"/>
<path d="M648.762 193.904C652.167 193.818 669.847 193.168 671.779 194.11C671.976 195.122 671.931 195.396 671.853 196.408C670.614 197.54 655.789 197.133 653.321 196.948C650.431 196.152 630.392 195.828 626.059 195.866C625.717 195.47 625.323 195.157 625.273 194.717C631.91 193.611 642.404 195.745 648.762 193.904Z" fill="#FE6C31"/>
<path d="M571.708 196.577C570.669 196.706 563.17 196.646 561.762 196.587C551.841 196.175 540.548 196.281 530.75 195.629L530.785 195.44C534.623 194.872 539.829 194.674 543.776 194.461C558.129 193.687 572.764 193.914 587.17 193.862L615.225 193.77C620.519 193.754 626.811 193.573 632.01 193.883C625.487 194.386 617.34 194.013 610.637 194.153C593.433 194.511 575.453 193.804 558.316 194.445C559.819 194.719 571.637 196.523 571.708 196.577Z" fill="#FAD2A3"/>
<path d="M495.183 187.746C495.715 187.747 496.496 187.964 496.89 188.323C500.249 191.379 493.937 197.572 492.039 199.59L494.849 201.905C504.185 198.711 503.182 187.17 510.293 193.345L511.31 196.645C510.804 199 510.011 201.663 509.374 204.013C510.529 203.137 512.898 200.667 514.229 200.781L514.496 201.551C514.081 202.855 513.722 202.9 512.669 203.905C511.068 204.99 508.596 207.066 506.734 206.337C505.579 204.025 509.494 197.63 506.621 196.14C503.523 196.736 499.253 203.277 495.584 204.651C491.173 206.304 490.944 205.392 489.561 201.465C489.054 201.506 488.547 201.542 488.04 201.573L487.505 200.922C487.329 197.597 492.05 189.67 495.183 187.746Z" fill="black"/>
<path d="M494.562 192.363C494.752 192.637 494.805 192.946 494.903 193.279C494.527 194.537 493.425 195.52 492.513 196.499C491.334 194.864 493.354 193.354 494.562 192.363Z" fill="#FFFEFE"/>
<path d="M420.933 175.242C422.598 175.169 425.608 174.747 426.865 175.411C427.741 176.7 427.974 178.849 426.844 180.001C425.64 180.378 424.439 179.448 423.253 179.14C418.197 177.827 416.768 187.522 415.948 190.887C418.461 190.093 424.429 188.32 426.897 189.369C427.558 190.162 427.379 192.728 427.393 193.917C422.51 192.322 420.795 193.237 415.698 193.801C414.983 198.336 414.385 202.713 414.381 207.304C414.381 208.445 414.23 209.249 413.427 209.991C409.438 208.483 413.427 196.814 411.91 194.578L410.575 194.858L410.266 194.639C410.424 193.562 411.677 192.673 412.536 191.9C412.91 185.266 413.343 177.322 420.933 175.242Z" fill="black"/>
<path d="M340.228 182.155C340.694 182.111 340.86 182.21 341.326 182.333C342.66 184.588 339.786 187.494 337.898 188.615C337.281 188.365 336.985 188.086 336.467 187.681C335.494 184.854 338.116 183.655 340.228 182.155Z" fill="black"/>
<path d="M12.7909 8.49541C18.6019 8.25325 25.2863 8.41797 31.1917 8.41833L64.477 8.42079L165.641 8.42923L165.731 157.195L12.7344 157.181L12.7909 8.49541Z" fill="#FFFEFE"/>
<path d="M68.5111 54.474L111.068 54.3941C128.021 54.4244 146.877 50.8441 139.264 76.0121C138.415 78.8197 137.611 82.4499 136.857 85.3593L129.719 112.518C123.388 112.477 117.058 112.485 110.728 112.542C113.655 101.225 116.677 89.9335 119.796 78.6684C120.718 75.3437 122.378 70.8638 120.808 67.574C117.012 59.6173 104.914 61.1143 100.982 68.021C98.233 72.8496 97.2916 79.0411 95.5891 84.3298C92.8223 93.4455 90.6872 103 87.4877 111.955C81.4486 111.858 75.2444 111.909 69.192 111.897C71.4194 102.522 73.7792 93.1783 76.2696 83.8694C77.0346 80.9059 81.6039 66.4902 78.9984 63.5766C77.3448 61.7281 69.1723 62.2733 66.1562 62.3113L68.5111 54.474Z" fill="#EC2024"/>
<path d="M41.0031 64.6367C47.0108 64.8173 53.7357 64.6381 59.8603 64.7163C54.7408 80.4331 50.5686 96.7465 45.4336 112.454C44.5655 113.191 29.5982 112.842 27.3906 112.832C31.2935 97.9084 36.2797 79.172 41.0031 64.6367Z" fill="#EC2024"/>
<path d="M53.7893 53.8917C56.7951 53.7239 60.2326 53.8256 63.2732 53.8467C62.5716 56.7244 61.8425 59.5958 61.087 62.4597C58.5878 62.2626 54.5515 62.3721 51.9238 62.3714C48.6779 62.3461 45.4324 62.3728 42.1875 62.4513C45.2549 57.2995 47.7017 54.7319 53.7893 53.8917Z" fill="#EC2024"/>
<path d="M492.584 54.9028C507.687 53.8483 519.396 60.0757 521.766 75.7774C524.255 92.2629 517.935 105.77 500.769 108.631C485.469 109.586 473.943 103.884 471.401 87.8623C468.779 71.3422 475.492 57.7344 492.584 54.9028Z" fill="#FFFEFE"/>
<path d="M493.912 63.3165C511.194 61.8706 514.806 79.8183 509.039 92.9478C507.311 96.8768 503.473 99.1227 499.485 100.317C482.269 102.983 477.953 81.9593 484.477 69.8885C486.529 66.0907 489.849 64.3355 493.912 63.3165Z" fill="#EC2024"/>
<path d="M320.356 55.596C326.117 55.3672 332.252 55.8202 337.915 55.5238C362.8 54.2201 368.07 89.1285 352.595 103.469C343.776 109.91 336.396 107.167 326.598 108.013C314.25 109.08 316.246 102.507 316.224 92.4845C316.201 81.446 315.802 69.7642 316.748 58.8147C316.862 57.4987 319.257 56.1334 320.356 55.596Z" fill="#FFFEFE"/>
<path d="M326.851 63.9814C331.766 63.941 340.86 63.369 344.738 66.29C352.635 72.239 351.549 88.4947 346.368 95.7513C341.107 100.885 334.272 99.6064 326.951 99.549C326.593 88.4489 326.924 75.2747 326.851 63.9814Z" fill="#EC2024"/>
<path d="M187.588 55.633C190.921 55.5281 195.278 54.8829 198.383 56.2904C201.183 57.5596 207.364 85.5155 209.29 90.7345C210.604 85.1699 216.514 59.6577 219.22 56.7058C220.093 55.7533 221.628 55.5633 222.85 55.5249C225.673 55.4366 230.63 54.9945 232.767 57.0894C234.228 58.5219 234.227 61.3577 234.271 63.2848C234.469 72.1093 234.292 80.9811 234.287 89.8096C234.285 94.5654 234.77 99.9776 234.122 104.661C233.974 105.728 233.531 106.777 232.763 107.546C231.848 108.462 230.668 108.87 229.383 108.826C228.064 108.773 226.821 108.194 225.931 107.218C224.403 105.54 224.387 103.203 224.427 101.056C224.63 90.2347 224.276 79.3015 224.576 68.4925C222.571 71.0739 218.049 95.1201 216.245 100.032C214.693 104.253 213.073 112.128 205.529 107.8C202.277 105.934 200.882 94.1222 199.538 90.5107C197.574 82.6322 195.374 74.6326 193.875 66.7376C193.217 79.2237 194.242 92.7728 193.312 105.294C193.136 107.655 189.574 109.379 187.167 108.632C186.057 108.281 185.135 107.501 184.604 106.465C182.572 102.466 184.541 69.8208 183.897 63.4087C183.538 59.8436 184.184 57.2696 187.588 55.633Z" fill="#FFFEFE"/>
<path d="M535.347 55.6047C542.05 55.3597 549.386 55.8827 555.963 55.4949C576.213 54.3006 582.176 79.0789 560.61 84.3173C562.204 85.294 563.662 86.477 564.947 87.8352C568.372 91.3873 574.378 99.5491 574.678 104.875C574.829 107.568 572.319 109.211 569.738 108.755C566.679 108.215 566.098 107.663 564.246 105.305C560.863 100.27 557.797 93.4477 553.798 89.0295C550.552 85.4401 546.309 85.4172 541.877 85.4081C541.771 90.0611 542.747 101.209 541.479 105.004C541 106.439 539.796 107.907 538.409 108.538C537.258 109.06 535.794 109.041 534.635 108.561C533.336 108.024 532.168 106.905 531.639 105.593C530.58 102.957 530.907 60.8673 531.713 58.9079C532.449 57.116 533.618 56.3417 535.347 55.6047Z" fill="#FFFEFE"/>
<path d="M541.812 63.3557C542.869 63.3434 544.066 63.2737 545.122 63.3198C551.082 63.5799 562.524 61.4727 563.15 70.1491C563.337 72.7536 562.64 73.8514 561.08 75.6922C556.683 78.8498 547.459 78.0293 541.872 78.0033L541.812 63.3557Z" fill="#EC2024"/>
<path d="M248.91 55.6228C256.16 55.2388 275.241 54.5493 280.888 57.7216C284.08 59.5149 286.404 62.3775 287.367 65.9207C288.36 69.5717 288.076 73.7971 286.147 77.1017C283.586 81.4901 279.188 83.1327 274.509 84.3463C279.436 87.2342 288.647 98.5233 288.537 104.931C288.445 110.313 281.751 109.885 278.234 105.36C274.794 100.38 271.893 93.4532 267.783 89.0511C264.39 85.4177 260.386 85.4019 255.831 85.3949C255.577 91.0559 256.026 97.1672 255.72 102.912C256.127 110.537 245.434 110.519 245.388 104.236C245.28 89.3654 245.027 74.0924 245.571 59.2301C245.624 57.7959 247.748 56.331 248.91 55.6228Z" fill="#FFFEFE"/>
<path d="M255.796 63.348C262.13 63.2804 276.686 61.3105 277.137 69.97C277.269 72.5295 276.512 74.024 274.913 75.8535C270.253 78.8357 261.44 78.0378 255.768 78.0142C255.694 73.1257 255.703 68.2362 255.796 63.348Z" fill="#EC2024"/>
<path d="M374.512 55.6258L374.717 55.6159C384.673 55.1577 395.438 55.6515 405.426 55.6768C407.771 55.5427 410.059 57.4124 409.876 59.8878C409.524 64.6707 399.663 63.7035 396.639 63.6971L380.892 63.638L380.916 76.6545C385.849 76.6123 402.532 75.5353 405.996 77.6644C406.901 78.2198 407.563 79.0303 407.792 80.0782C407.993 80.982 407.845 81.9591 407.31 82.7239C404.722 86.4147 386.098 84.0016 381.209 84.7893L380.892 85.3767C380.878 90.0987 380.906 94.8204 380.969 99.5421L397.773 99.5178C400.758 99.5188 404.155 99.2415 407.088 99.7751C408.031 99.9465 408.971 100.327 409.647 101.023C410.369 101.762 410.696 102.967 410.665 103.979C410.629 105.014 410.26 106.059 409.478 106.769C407.394 108.663 381.867 108.135 377.033 107.903C374.868 107.799 373.059 107.774 371.538 106.021C370.724 105.087 370.555 104.043 370.422 102.855C369.714 96.5964 370.246 89.7584 370.256 83.4437C370.274 75.3808 369.862 67.1056 370.499 59.0768C371.763 57.085 372.295 56.4005 374.512 55.6258Z" fill="#FFFEFE"/>
<path d="M598.849 54.9036C598.989 54.8906 599.13 54.879 599.268 54.8691C606.956 54.2852 619.528 56.309 621.38 66.1543C621.732 68.0236 619.694 72.9494 617.416 72.7572C613.857 72.4574 611.621 67.1937 609.262 64.8735C607.344 62.9535 604.724 61.9025 602.01 61.9659C598.218 62.0377 592.308 64.6236 592.885 68.8057C593.765 75.196 606.425 75.5403 611.294 77.6866C614.543 79.1191 617.039 79.653 619.644 82.215C625.612 87.3323 624.714 97.1822 619.831 102.72C616.071 106.986 609.78 108.517 604.119 108.756C599.863 108.819 595.698 108.518 591.755 106.771C587.565 104.91 584.302 101.443 582.697 97.1516C581.295 93.4893 582.119 89.7774 586.147 88.3787C590.829 88.2633 592.015 96.8122 596.032 99.3038C599.106 101.527 601.961 101.246 605.439 100.934C609.526 100.567 614.314 96.2794 613.219 91.9783C611.67 85.8811 600.781 85.4056 595.888 83.4881C593.219 82.4424 590.875 81.8592 588.544 80.0726C582.116 75.9243 581.397 67.6241 585.615 61.5625C588.653 57.1939 593.702 55.7564 598.849 54.9036Z" fill="#FFFEFE"/>
<path d="M438.643 54.9207C449.021 53.9626 460.541 58.0166 463.554 69.21C463.864 70.3623 463.593 72.1559 462.836 73.0792C457.08 80.1006 453.091 67.592 448.937 65.0652C424.343 51.999 419.062 104.176 444.012 100.38C447.976 99.7768 450.285 98.0774 452.69 94.8119C453.602 93.0365 454.351 90.9898 455.379 89.3099C458.062 84.9321 462.332 85.874 463.353 90.7604C464.026 93.9724 462.523 97.4129 460.826 100.023C454.19 110.231 437.196 111.251 427.638 104.969C422.255 101.413 418.801 94.757 417.678 88.5296C415.485 76.3352 419.058 62.6324 431.134 57.1191C433.816 55.895 435.749 55.4553 438.643 54.9207Z" fill="#FFFEFE"/>
</g>
<defs>
<clipPath id="clip0_1471_58">
<rect width="668" height="222" fill="white"/>
</clipPath>
</defs>
</svg>
